<?xml version="1.0" encoding="UTF-8"?>
<svg id="Layer_2" data-name="Layer 2" xmlns="http://www.w3.org/2000/svg" viewBox="0 0 758.45 158.26">
  <defs>
    <style>
      .cls-1 {
        fill: #7d4aee;
      }

      .cls-2 {
        fill: #111416;
      }

      .cls-3 {
        fill: #678fdf;
      }

      .cls-4 {
        fill: #726ce5;
      }

      .cls-5 {
        fill: #51d4cf;
      }

      .cls-6 {
        fill: #5cb1d6;
      }
    </style>
  </defs>
  <g id="Layer_1-2" data-name="Layer 1">
    <g>
      <g>
        <path class="cls-2" d="M248.13,126.6h-55.32c-3.75,0-7.17-.91-10.26-2.74-3.09-1.82-5.54-4.28-7.37-7.37-1.83-3.09-2.74-6.51-2.74-10.26v-18.63c0-3.75.91-7.17,2.74-10.26,1.82-3.09,4.28-5.54,7.37-7.37,3.09-1.82,6.51-2.74,10.26-2.74h34.95c2.63,0,5.17.49,7.62,1.48v-15.5h12.74v73.38ZM235.39,113.86v-26.3c0-2.15-.72-3.95-2.17-5.4-1.45-1.45-3.27-2.18-5.45-2.18h-34.95c-2.15,0-3.96.73-5.42,2.2-1.47,1.47-2.2,3.27-2.2,5.42v18.63c0,2.15.73,3.96,2.2,5.42,1.47,1.47,3.27,2.2,5.42,2.2h42.57Z"/>
        <path class="cls-2" d="M276.38,126.6h-12.74v-59.36h12.74v3.22c1.23-1.33,2.48-2.2,3.76-2.61,1.28-.41,2.57-.61,3.86-.61h29.68v12.74h-29.68c-2.15,0-3.96.73-5.42,2.2s-2.2,3.27-2.2,5.42v38.99Z"/>
        <path class="cls-2" d="M379.18,126.6h-37.3c-3.75,0-7.17-.91-10.26-2.74-3.09-1.82-5.54-4.28-7.37-7.37-1.83-3.09-2.74-6.51-2.74-10.26v-18.63c0-3.75.91-7.17,2.74-10.26,1.82-3.09,4.28-5.54,7.37-7.37,3.09-1.82,6.51-2.74,10.26-2.74h37.3c3.75,0,7.16.91,10.23,2.74,3.07,1.83,5.53,4.28,7.37,7.37,1.84,3.09,2.76,6.51,2.76,10.26v18.63c0,3.75-.92,7.17-2.76,10.26-1.84,3.09-4.3,5.54-7.37,7.37-3.07,1.83-6.48,2.74-10.23,2.74ZM379.18,113.86c2.11,0,3.91-.73,5.4-2.2,1.48-1.47,2.23-3.28,2.23-5.42v-18.63c0-2.15-.74-3.96-2.23-5.42-1.48-1.47-3.28-2.2-5.4-2.2h-37.3c-2.15,0-3.96.73-5.42,2.2-1.47,1.47-2.2,3.27-2.2,5.42v18.63c0,2.15.73,3.96,2.2,5.42,1.47,1.47,3.27,2.2,5.42,2.2h37.3Z"/>
        <path class="cls-2" d="M426.46,140.57h-12.74v-73.38h55.32c3.75,0,7.17.92,10.26,2.76,3.09,1.84,5.54,4.3,7.37,7.37,1.82,3.07,2.74,6.48,2.74,10.23v18.68c0,3.72-.91,7.12-2.74,10.21-1.83,3.09-4.28,5.55-7.37,7.39-3.09,1.84-6.51,2.76-10.26,2.76h-34.95c-2.59,0-5.13-.49-7.62-1.48v15.45ZM469.03,113.86c2.15,0,3.96-.74,5.42-2.23,1.47-1.48,2.2-3.28,2.2-5.4v-18.68c0-2.12-.73-3.91-2.2-5.4-1.47-1.48-3.27-2.23-5.42-2.23h-42.57v26.3c0,2.18.72,4,2.18,5.45,1.45,1.45,3.27,2.18,5.45,2.18h34.95Z"/>
        <path class="cls-2" d="M516.26,140.57h-12.74v-73.38h55.32c3.75,0,7.17.92,10.26,2.76,3.09,1.84,5.54,4.3,7.37,7.37,1.82,3.07,2.74,6.48,2.74,10.23v18.68c0,3.72-.91,7.12-2.74,10.21-1.83,3.09-4.28,5.55-7.37,7.39-3.09,1.84-6.51,2.76-10.26,2.76h-34.95c-2.59,0-5.13-.49-7.62-1.48v15.45ZM558.84,113.86c2.15,0,3.96-.74,5.42-2.23,1.47-1.48,2.2-3.28,2.2-5.4v-18.68c0-2.12-.73-3.91-2.2-5.4-1.47-1.48-3.27-2.23-5.42-2.23h-42.57v26.3c0,2.18.72,4,2.18,5.45,1.45,1.45,3.27,2.18,5.45,2.18h34.95Z"/>
        <path class="cls-2" d="M649.61,126.6h-37.3c-3.75,0-7.17-.91-10.26-2.74-3.09-1.82-5.54-4.28-7.37-7.37-1.83-3.09-2.74-6.51-2.74-10.26v-18.63c0-3.75.91-7.17,2.74-10.26,1.83-3.09,4.28-5.54,7.37-7.37,3.09-1.82,6.51-2.74,10.26-2.74h37.3c3.75,0,7.16.91,10.23,2.74,3.07,1.83,5.53,4.28,7.37,7.37,1.84,3.09,2.76,6.51,2.76,10.26v18.63c0,3.75-.92,7.17-2.76,10.26-1.84,3.09-4.3,5.54-7.37,7.37-3.07,1.83-6.48,2.74-10.23,2.74ZM649.61,113.86c2.12,0,3.91-.73,5.4-2.2,1.48-1.47,2.23-3.28,2.23-5.42v-18.63c0-2.15-.74-3.96-2.23-5.42-1.48-1.47-3.28-2.2-5.4-2.2h-37.3c-2.15,0-3.96.73-5.42,2.2s-2.2,3.27-2.2,5.42v18.63c0,2.15.73,3.96,2.2,5.42,1.47,1.47,3.27,2.2,5.42,2.2h37.3Z"/>
        <path class="cls-2" d="M758.45,126.6h-55.32c-3.75,0-7.17-.91-10.26-2.74-3.09-1.82-5.54-4.28-7.37-7.37-1.83-3.09-2.74-6.51-2.74-10.26v-18.63c0-3.75.91-7.17,2.74-10.26,1.83-3.09,4.28-5.54,7.37-7.37,3.09-1.82,6.51-2.74,10.26-2.74h34.95c2.63,0,5.17.49,7.62,1.48v-15.5h12.74v73.38ZM745.71,113.86v-26.3c0-2.15-.73-3.95-2.18-5.4-1.45-1.45-3.27-2.18-5.45-2.18h-34.95c-2.15,0-3.96.73-5.42,2.2s-2.2,3.27-2.2,5.42v18.63c0,2.15.73,3.96,2.2,5.42,1.47,1.47,3.27,2.2,5.42,2.2h42.57Z"/>
      </g>
      <g>
        <polygon class="cls-4" points="73.09 158.25 91.36 126.6 54.82 126.6 73.09 158.25"/>
        <polygon class="cls-1" points="73.09 158.26 36.54 158.26 18.27 126.6 54.81 126.6 73.09 158.26"/>
        <polygon class="cls-3" points="54.81 63.3 36.54 94.95 0 94.95 18.27 63.3 54.81 63.3"/>
        <polygon class="cls-4" points="54.81 126.6 18.27 126.6 0 94.95 36.54 94.95 54.81 126.6"/>
        <polygon class="cls-6" points="73.09 31.65 54.81 63.3 18.27 63.3 36.54 31.65 73.09 31.65"/>
        <polygon class="cls-5" points="54.82 0 73.09 31.65 36.54 31.65 54.82 0"/>
        <polygon class="cls-1" points="127.91 126.6 109.63 158.26 73.09 158.26 91.37 126.6 127.91 126.6"/>
        <polygon class="cls-3" points="146.19 94.95 109.63 94.95 91.37 63.3 127.91 63.3 146.19 94.95"/>
        <polygon class="cls-4" points="146.19 94.95 127.91 126.6 91.37 126.6 109.63 94.95 146.19 94.95"/>
        <polygon class="cls-6" points="127.91 63.3 91.37 63.3 73.09 31.65 109.63 31.65 127.91 63.3"/>
        <polygon class="cls-5" points="91.36 0 73.09 31.65 109.64 31.65 91.36 0"/>
      </g>
    </g>
  </g>
</svg>